<?xml version="1.0" encoding="UTF-8"?>
<svg id="Layer_2" data-name="Layer 2" xmlns="http://www.w3.org/2000/svg" xmlns:xlink="http://www.w3.org/1999/xlink" viewBox="0 0 1556.91 475.18">
  <defs>
    <style>
      .cls-1 {
        fill: #4db748;
      }

      .cls-2 {
        fill: #f37321;
      }

      .cls-3 {
        fill: #d93838;
      }

      .cls-4 {
        clip-path: url(#clippath);
      }

      .cls-5 {
        fill: #efda3a;
      }

      .cls-6 {
        fill: none;
      }

      .cls-7 {
        fill: #e22f2f;
      }

      .cls-8 {
        fill: #f2af50;
      }
    </style>
    <clipPath id="clippath">
      <path class="cls-6" d="m467.99,440.54v34.31h-73.53c-47.06,0-84.97-37.91-84.97-84.97v-34.31h73.53c47.06,0,84.97,37.91,84.97,84.97Zm-62.42-370.93C338.25,1.31,251.97,0,237.59,0,141.51.98,80.72,58.5,69.61,69.61,2.29,136.93,0,220.92,0,237.59h0c0,117.65,90.85,233.99,237.59,237.59,16.67-.33,56.86,0,56.86,0v-119.94h-56.86c-7.84,0-50.33-.98-84.32-35.62-32.68-33.33-33.33-73.86-33.66-82.36h0c0-65.03,52.62-117.65,117.65-117.65h0c6.86,0,59.48,1.63,92.81,45.43,21.24,28.11,22.22,58.5,22.55,70.92.98,53.92-31.37,90.85-40.2,100.33,44.12,0,88.24-.33,132.36-.65,9.8-18.3,23.86-50,26.8-90.85,7.19-98.7-56.86-166.02-66.02-175.17h0Zm260.14,40.2c34.64,0,62.75,28.11,62.75,62.75v59.48c0,67.32-54.58,121.57-121.57,121.57h0c-67.65,0-122.23-54.58-122.23-122.23v-121.57h0c33.99,0,61.44,27.45,61.44,61.44v59.48c0,33.33,27.13,60.46,60.46,60.46h0c32.68,0,59.15-26.47,59.15-59.15v-122.23h0Zm300.99,243.8c0-33.99-27.45-61.44-61.44-61.44v-44.12c0-32.68-26.47-58.83-58.83-58.83h0v103.27h-60.79l60.46-104.58c16.99-29.41,6.86-67-22.55-83.99h0l-91.18,157.85c-6.86,11.77-9.15,24.51-7.84,36.93v.33c0,.98.33,1.63.33,2.61v.65c0,.65.33.98.33,1.63,0,.33.33.98.33,1.31s0,.65.33.98c0,.65.33,1.31.65,2.29v.33c1.63,5.88,3.92,11.11,6.86,16.01v.33c.33.65.98,1.63,1.31,2.29.33.33.33.65.65.98.33.65.65.98.98,1.63.33.33.65.65.98.98.33.33.65.98.98,1.31s.65.65.98.98c.33.33.65.98.98,1.31s.33.65.65.65c.33.65.98.98,1.31,1.31l.33.33c.65.65,1.31,1.31,1.96,1.63h0c10.78,9.48,25.16,15.36,40.85,15.36h60.79v61.44h0c32.68,0,58.83-26.47,58.83-58.83v-2.61l61.77-.33h0Zm158.5-182.36c0-33.99-27.45-61.77-61.77-61.77h-180.72c0,33.99,27.45,61.77,61.77,61.77h30.39v182.36c33.33,0,60.46-27.12,60.46-60.46v-121.9h89.87Zm186.28,28.43h0c0,50-40.52,90.53-90.53,90.53h0c-10.13,0-19.94-1.63-29.09-4.9v67.65h-61.44V109.15h90.53c50,0,90.53,40.52,90.53,90.53Zm-61.44,2.29c0-16.67-13.4-30.39-30.39-30.39h-27.78v60.46h27.78c16.67,0,30.39-13.4,30.39-30.07Zm-1.31,88.89h-34.97v18.95c0,23.53,18.95,42.48,42.48,42.48h34.97v-18.95c0-23.53-18.95-42.48-42.48-42.48Zm308.18-59.15h0c0,66.34-53.92,120.27-120.27,120.27h0c-66.34,0-120.27-53.92-120.27-120.27h0c0-66.34,53.92-120.27,120.27-120.27h0c66.34,0,120.27,53.92,120.27,120.27Zm-61.44,0c0-32.35-26.14-58.83-58.83-58.83h0c-32.35,0-58.83,26.14-58.83,58.83h0c0,32.35,26.14,58.83,58.83,58.83h0c32.35-.33,58.83-26.47,58.83-58.83h0Z"/>
    </clipPath>
  </defs>
  <g id="Layer_1-2" data-name="Layer 1">
    <g class="cls-4">
      <g>
        <path class="cls-1" d="m1589.26-23.53c0,309.16,0,618.32.33,927.48,0,9.48-1.31,11.76-11.44,11.76-825.52-.33-1650.7-.33-2476.22,0-10.46,0-12.09-2.61-12.09-12.42.33-577.14.33-1154.61,0-1731.75,0-9.48,1.31-12.75,12.09-12.75,825.52.33,1650.7.33,2476.22,0,9.8,0,11.77,1.96,11.44,11.77-.65,40.52-.33,81.38-.33,121.9-29.09-5.23-55.88-18.95-84.97-25.16-43.79-9.48-87.58-19.28-132.36-22.22-28.43-1.96-56.86,0-85.62,4.25-58.83,9.15-111.77,29.09-156.87,68.96-1.63,1.63-2.94,3.27-4.58,4.9-7.52,4.25-12.75,10.78-17.97,17.32-21.9,23.2-36.28,51.96-54.58,77.78-13.07-3.59-25.82-7.84-39.87-7.19-37.26,2.29-69.61,38.24-60.79,72.22,7.19,27.78,26.14,55.23,66.67,56.54-3.92,30.39-3.27,61.44-1.31,91.83,2.29,36.93,7.84,73.86,5.56,111.11-2.61,45.43-11.77,88.24-49.67,119.61-13.4,11.11-25.16,23.86-33.66,39.54-15.03-.98-28.43-11.11-44.45-8.17-1.31-.98-2.29-1.63-3.59-2.61-7.52-.65-15.36-1.31-22.88-1.63-7.52-.65-15.36-1.63-22.55,1.96-33.33,3.59-66.02,10.46-94.77,28.11-28.76,17.65-55.56,38.24-83.01,57.52-22.22-11.11-45.1-10.13-68.3-4.9-19.61,4.58-38.89,13.4-59.15,9.48-39.87-7.52-75.17-23.2-101.31-57.19-11.77-15.69-23.2-31.7-35.62-46.73-25.82-30.39-44.12-65.69-68.3-97.39-12.75-16.67-24.84-32.35-50.66-31.37-52.29,1.96-104.91,0-157.19.65-25.16.33-40.85-14.71-42.16-35.62-1.31-23.86,14.38-38.89,40.2-40.52,3.92-.33,9.48,1.96,12.09-4.9-34.97-8.82-69.28-16.34-105.56-16.67-41.5-.33-82.68,1.96-123.21,12.75-31.05,8.5-61.77,19.28-88.89,35.62-50,30.39-91.18,71.24-122.55,121.25-2.61,3.92-6.54,7.19-6.54,12.42-5.56,1.63-10.13-.65-15.03-2.29-35.62-11.77-71.57-21.24-108.5-28.11-27.78-8.17-56.54-8.5-84.97-11.11-29.41-2.61-59.48-.98-88.89,2.94-22.22,2.94-44.77,4.58-66.34,10.46-78.43,20.59-150.66,55.23-218.96,98.37-8.5,5.23-10.78,11.11-10.78,20.59.33,245.43.33,490.54-.33,735.64,0,14.05,6.21,18.63,17.32,19.28,39.87,1.96,79.74,1.63,119.28-7.19,4.25,2.94,8.17,3.27,13.73,3.27,14.71,0,27.45-8.5,41.83-8.82,5.88,4.58,12.75,2.29,18.95,1.63,20.92-1.96,42.16-6.54,62.75-7.19,25.82-.98,49.67-8.17,74.19-13.73,29.74-6.86,58.17-20.59,87.58-29.74,56.54-17.65,98.7-54.9,136.93-98.37,12.75-14.38,25.49-29.09,39.22-42.48,27.13-25.82,53.27-52.29,79.41-78.76,16.99-17.32,34.64-33.99,50-52.94,11.44-14.05,26.14-25.82,39.22-38.24,3.59-3.27,7.52-5.88,4.25-11.77,17.32-4.58,25.82-19.61,37.91-30.39,6.86-6.21,11.44-15.36,23.2-18.63-2.29,8.17-7.84,11.44-11.77,15.69-7.52,8.17-16.34,15.36-19.94,26.47-11.77,4.9-16.99,17.32-26.47,24.51-32.35,25.49-56.54,58.83-86.6,86.6-38.56,36.28-74.84,75.17-112.09,113.08-12.09,12.42-23.53,25.16-35.62,38.24,6.86,3.27,10.78-.98,15.03-3.27,51.64-30.39,92.49-73.2,133.66-115.69,30.39-31.37,61.44-62.42,92.16-93.47,16.01-16.34,32.68-32.03,46.08-50.66,4.58-3.27,8.82-7.19,13.4-10.13,4.58-2.94,7.52-13.07,14.05-8.17,6.54,4.9-5.88,7.84-5.23,13.73-25.82,19.61-46.73,44.12-69.61,67-14.71,14.71-29.09,30.39-43.79,45.43-17.97,18.3-36.93,35.62-55.23,53.6,4.58,4.58,7.19,4.25,9.8,2.94,35.95-17.97,67.65-41.18,94.77-70.92,25.49-27.78,52.62-54.25,78.76-81.38,2.29-2.29,4.9-6.21,7.84-3.59,3.59,3.59-.33,6.86-2.94,9.48-8.5,8.17-16.99,16.67-25.82,24.18-22.22,19.28-39.22,43.47-59.48,64.38-3.27,3.27-.65,8.17,1.63,6.86,15.69-9.48,36.28-8.5,49.35-24.18,13.4-16.01,28.11-30.72,42.16-45.75,1.96-2.29,2.94-7.52,7.19-4.25,4.25,3.27.33,6.54-1.96,9.48-10.46,11.44-21.24,23.2-32.35,35.3,8.82,4.58,16.99,1.63,23.53-1.31,25.82-11.11,53.92-12.09,80.72-18.63,29.09-7.19,59.15-10.46,89.22-9.15,4.25.33,9.48,1.96,12.75-2.94,26.47-.65,52.94-1.63,79.41,1.96-12.09,1.63-24.51-1.31-36.28,3.27,16.34,1.96,31.7,5.56,47.39,9.48,8.5,1.96,18.3,5.56,27.13-1.31,21.9,5.88,39.87,18.95,58.5,31.05,20.26,13.07,39.22,28.11,60.79,38.56,30.72,15.03,61.44,30.07,94.77,40.85,36.93,12.09,74.51,17.32,112.42,19.94,29.09,1.96,58.5,2.94,87.26-2.61,23.2-4.58,46.41-7.84,69.28-16.01,44.77-15.69,79.09-44.77,110.13-79.09,9.15-9.8,18.3-19.28,24.84-33.01-20.26,1.96-37.91-.98-45.1-21.57-4.58-13.07,3.27-22.55,14.05-29.41,18.63-3.92,37.58-.98,56.54-1.63,6.54-.33,11.11-.98,15.03-7.52,14.05-24.84,29.74-49.35,42.48-75.17,2.94,2.29,6.54,3.92,9.15,6.54,22.22,23.53,62.09,20.26,82.68-3.59,20.59-23.53,29.41-59.48.33-93.47,13.73-5.23,27.12-9.8,42.16-9.15,21.57.65,43.14.65,65.03,1.31,27.78.98,55.88.65,82.36-8.17,43.47-14.71,82.36-38.24,118.3-66.67,2.29,1.31,2.29,3.59,2.94,5.88,7.52,21.57,31.05,38.56,57.19,26.8,22.22-9.8,34.97-44.45,22.88-66.02-1.63-2.94-4.58-4.9-3.59-8.5,4.9-1.31,10.13-2.29,14.71-3.92,36.28-13.4,72.55-21.9,110.46-22.22h0ZM260.79,442.17c10.78,17.65,16.99,19.61,34.97,10.78,14.38-6.21,15.03-16.99,10.46-29.74-3.92-11.44-12.75-15.36-24.18-15.03-17.65.33-25.82,13.73-21.24,33.99h0Zm-109.15,76.47c20.92-14.05,22.88-34.97,22.22-57.52-1.31-35.3-34.64-62.75-69.61-56.21-39.87,7.19-62.42,43.14-51.96,82.36,10.46,40.52,61.44,60.13,99.35,31.37h0ZM-567.01-321.58c.65-42.16-26.14-67.65-63.4-67.98-24.84,0-60.79,22.55-59.81,66.67.65,33.33,27.78,64.71,61.11,63.73,30.39-.98,65.03-28.43,62.09-62.42h0Zm860.48,62.42c-23.53-21.24-49.02-30.07-72.22-42.81-31.37-17.32-65.36-18.3-100-16.34-16.34.98-33.01,20.26-29.74,33.33,3.92,15.36,17.32,25.82,34.31,25.82,41.83.33,83.99,0,125.82,0,13.07,0,25.49,0,41.83,0Zm709.83-397.07c16.67,0,29.09-12.75,29.41-29.74.33-14.71-16.34-29.74-32.68-29.41-17.65,0-29.74,13.4-29.41,32.03.33,16.34,13.73,27.13,32.68,27.13h0Zm-69.28,961.79c-19.28,0-35.3-.65-51.31.33-16.01.65-24.51,16.34-16.99,29.09,7.19,11.77,38.24,15.03,46.73,4.25,7.52-9.8,13.73-20.92,21.57-33.66h0ZM-552.96-423.54c0,13.07,9.8,22.88,22.55,22.88,11.44,0,23.2-12.09,23.2-23.2-.33-11.77-12.09-22.55-24.18-22.22-12.09,0-21.57,10.13-21.57,22.55h0ZM1326.84,156.21c0-12.09-7.19-19.94-18.63-20.26-12.09,0-19.94,7.52-19.94,19.28s8.17,19.61,19.61,19.61c11.44,0,18.95-7.52,18.95-18.63h0Z"/>
        <path class="cls-2" d="m668.32-23.2c27.78-19.28,54.58-39.87,83.01-57.52,28.76-17.65,61.44-24.51,94.77-28.11,7.84,3.59,15.69,5.88,22.55-1.96,7.52.65,15.36,1.31,22.88,1.63,1.31.98,2.29,1.63,3.59,2.61,15.69-2.61,29.09,7.52,44.45,8.17,5.88,8.5,15.03,3.59,22.22,5.23,23.53,5.56,47.06,11.77,71.57,9.15,8.5,3.92,13.73-1.63,19.28-6.86,48.04-47.06,90.85-98.04,121.9-158.17,9.15-17.32,23.2-31.37,31.7-49.02,12.75-25.82,29.74-49.02,44.77-73.53,13.4-21.9,34.31-37.26,52.94-53.92,25.82-22.88,55.88-38.56,89.55-46.08,33.01-7.52,66.67-11.11,100.66-9.15,6.21.33,10.13-1.96,14.05-7.19,8.5-10.78,9.8-24.84,17.97-35.3,13.73-24.51,27.78-49.02,45.43-70.92,4.9-5.88,8.17-13.73,16.99-14.71V-24.51c-37.91.33-74.51,9.15-109.81,21.9-4.9,1.63-9.8,2.61-15.03,3.92-4.9-.98-7.84-4.9-11.44-7.84-16.01-11.77-34.97-11.77-50.66-.33-16.34,12.42-23.2,32.03-17.32,50-35.95,28.43-74.84,51.96-118.3,66.67-26.47,8.82-54.25,9.15-82.36,8.17-21.57-.65-43.47-.33-65.03-1.31-15.03-.33-28.43,3.92-42.16,9.15-5.88-8.17-16.01-8.5-24.51-12.09-25.16-10.78-60.79,1.96-74.19,25.49-15.36,27.12-8.17,52.29,6.21,76.8-12.75,25.82-28.11,50.33-42.16,75.17-3.92,6.54-8.5,7.52-15.03,7.52-18.95.65-37.91-1.96-56.54,1.63-2.94-17.65-7.84-34.97-8.5-52.62-1.31-29.09,1.63-58.83-.98-87.91-2.29-28.76,7.52-56.21,3.92-84.64-.33-1.96,1.63-4.25,3.27-6.21,8.82-9.8,2.61-11.44-6.54-11.77,2.61-4.9,7.84-6.21,12.42-8.17,19.61-8.17,40.85-8.82,61.11-14.05,13.4-3.27,24.84-10.46,34.97-19.61,8.17-7.19,6.54-14.71-4.25-17.32-8.82-2.29-17.32-5.23-24.51-9.8-26.8-16.67-54.25-11.44-79.74.33-18.3,8.5-35.3,20.59-49.35,36.6-14.71,16.34-29.41,32.35-42.48,50.33-17.97,24.51-40.85,44.77-64.05,65.03-31.7,27.12-66.34,50.66-98.7,76.47-36.93,29.41-80.07,50.66-123.53,69.61-25.82,11.44-53.6,16.01-81.38,21.57-43.79,8.82-83.66,0-123.21-15.03-40.85-15.69-78.11-38.56-115.36-61.11-5.88-3.59-11.77-8.17-19.61-5.88-26.8-21.24-58.5-29.74-91.18-34.97-19.61-3.27-39.54-5.56-59.15-8.5,4.25-13.73,14.05-25.49,17.32-39.87,1.31-5.23,4.9-5.23,9.8-2.94,13.07,6.54,26.47,12.09,39.87,17.65,6.21,2.61,13.07,3.92,18.95,0,7.19-4.9,2.61-11.77,1.96-17.97,2.29.65,4.58.65,6.54,1.63,70.59,32.68,144.12,50.98,222.56,46.08,12.09-.65,24.51,1.31,36.6-2.29,39.22-11.77,78.43-22.22,114.71-43.47,29.41-16.99,56.54-36.6,83.34-56.86,26.47-19.94,48.69-45.43,74.84-66.34,17.97-11.76,33.01-27.12,48.37-41.5h0Zm245.76,214.06c.98-9.48-6.21-12.42-12.09-12.42-5.23,0-11.44,3.92-11.11,11.77.33,6.86,4.25,12.75,10.13,11.77,5.23-.65,16.01,0,13.07-11.11h0Z"/>
        <path class="cls-5" d="m668.32-23.2c-15.69,14.38-30.39,29.74-47.06,42.81-26.14,20.59-48.37,46.08-74.84,66.34-26.8,20.26-53.92,39.87-83.34,56.86-36.28,21.24-75.49,31.7-114.71,43.47-12.09,3.59-24.18,1.63-36.6,2.29-78.43,4.9-151.97-13.4-222.56-46.08-1.96-.98-4.25-1.31-6.54-1.63h0c-.65-2.94-2.94-2.94-5.56-2.94h0c-.65-3.59-3.59-2.61-5.88-3.27-10.78-6.21-21.9-12.42-32.35-18.95C3.92,94.45-23.86,65.36-51.64,35.95-81.7,3.59-111.44-29.41-142.49-61.11c-27.78-28.43-58.5-52.29-93.47-71.57-23.53-13.07-49.67-20.26-72.88-33.66,0-5.23,3.92-8.5,6.54-12.42,31.37-50,72.55-90.85,122.88-121.25,27.13-16.34,57.84-27.13,88.89-35.62,40.52-10.78,81.38-13.07,123.21-12.75,35.95.33,70.59,7.84,105.56,16.67-2.61,6.86-8.17,4.58-12.09,4.9-25.82,1.63-41.5,16.67-40.2,40.52,1.31,20.92,16.99,35.95,42.16,35.62,52.62-.65,104.91.98,157.52-.65,25.82-.98,37.91,14.71,50.66,31.37,24.18,31.37,42.16,67,68.3,97.39,12.75,14.71,23.86,31.05,35.62,46.73,25.82,33.99,61.44,49.67,101.31,57.19,19.94,3.92,39.54-4.9,59.15-9.48,22.55-5.23,45.75-6.21,67.65,4.9h0ZM150.99,47.06c0-27.13-16.67-45.1-42.48-45.1-27.13,0-45.75,17.32-46.08,42.16-.33,32.68,15.69,50.66,44.45,50.98,27.78-.33,44.12-17.97,44.12-48.04h0ZM3.59-43.79c9.8,0,19.94-11.44,19.28-21.57-.65-11.77-10.13-20.59-22.22-20.26-10.46.33-19.94,10.78-19.28,21.9.65,12.09,9.48,19.94,22.22,19.94h0Z"/>
        <path class="cls-3" d="m-308.51-166.34c23.53,13.07,49.35,20.59,72.88,33.66,34.97,19.28,65.36,43.14,93.47,71.57C-111.11-29.41-81.7,3.59-51.31,35.95-23.86,65.36,4.25,94.45,39.22,115.69c10.78,6.54,21.57,12.75,32.35,18.95.65,2.94,2.94,3.59,5.88,3.27h0c.98,2.61,2.94,3.27,5.56,2.94h0c.65,6.21,5.23,13.4-1.96,17.97-5.88,3.92-12.75,2.61-18.95,0-13.4-5.88-26.8-11.44-39.87-17.65-4.9-2.61-8.82-2.29-9.8,2.94-3.27,14.38-12.75,26.14-17.32,39.87-22.55,1.31-45.1-2.61-67.32,2.94-11.77-8.17-22.22,0-33.33,2.29-23.53,1.31-46.41,9.8-70.59,8.5-4.9-8.5,6.21-9.48,7.19-16.34-16.01.33-21.24,15.03-31.05,23.2-13.07,10.46-28.76,13.73-44.45,16.67,4.58-20.26,24.84-28.11,33.66-45.75-21.9,12.42-36.6,33.01-52.62,51.64-.33.65-.98.98-1.63,1.31-1.31,1.31-2.61,2.29-3.92,3.59-17.97,4.58-33.01,16.34-51.31,19.61,1.31-5.23,4.9-8.82,8.5-12.42,18.63-19.28,36.93-38.89,55.23-58.17-1.31-1.31-2.94-2.94-4.25-4.25-37.58,33.33-67.98,74.51-107.19,105.89-5.56.98-10.46,2.94-15.36,6.21-24.18,14.71-44.77,34.64-67.98,50.33-.33-3.59-.33-7.19-.65-11.11-.65-9.48,2.94-15.36,13.73-13.4,4.9,9.8,7.84-.33,9.15-1.63,29.74-29.09,58.83-58.5,88.24-87.58,5.88-5.88,10.46-12.09,13.4-20.92-12.09,1.31-15.69,11.11-21.24,16.99-29.74,31.05-63.73,58.17-89.55,93.14-1.96-12.42-.65-23.53,12.75-29.41,3.92-1.63,3.59-5.23,2.94-8.5-3.59-18.95-1.63-36.28,4.58-55.23,4.9-15.36.65-33.66,1.63-50.66,1.31-22.88,2.61-45.43,5.88-67.98.98-6.54,1.96-12.42-1.63-17.32-9.15-13.07-16.99-27.12-32.35-34.97-7.19-3.59-16.34-9.15-3.59-18.3,5.23-3.92,3.59-10.46,3.59-16.01,0-49.67-.65-99.35.33-149.02.33-20.26-4.58-41.5,8.5-60.13.98-1.31,2.61-2.61,3.92-3.92,36.93,6.54,72.88,16.34,108.5,28.11,4.58,1.31,9.48,3.59,14.71,2.29h0Z"/>
        <path class="cls-3" d="m863.43,58.5c8.82.33,15.03,1.96,6.54,11.77-1.63,1.63-3.27,4.25-3.27,6.21,3.27,28.43-6.54,56.21-3.92,84.64,2.29,29.09-.65,58.5.98,87.91.98,17.65,5.56,35.3,8.5,52.62-10.78,6.86-18.3,16.34-14.05,29.41,6.86,20.59,24.51,23.53,45.1,21.57-6.54,13.73-15.69,23.2-24.84,33.01-31.05,34.31-65.36,63.4-110.13,79.09-22.55,8.17-46.08,11.44-69.28,16.01-28.76,5.56-58.17,4.58-87.26,2.61-37.91-2.61-75.49-7.84-112.42-19.94-33.01-10.78-63.73-25.82-94.77-40.85-21.57-10.46-40.52-25.82-60.79-38.56-18.63-11.77-36.6-25.16-58.5-31.05-11.11-8.82-24.84-9.48-38.24-11.77-26.47-3.92-52.94-2.61-79.41-1.96-5.88-1.31-11.77-2.29-17.65-3.59-3.59-4.25-3.59-8.82-2.61-14.38,1.63-8.82,2.61-17.97-10.78-19.94-6.54-.98-11.44-8.5-7.19-14.05,8.82-10.78,6.54-22.88,7.19-34.64.98-12.75,4.9-14.71,16.34-9.15,2.61,1.31,6.86,8.5,8.17-1.31,4.58-.98,6.54,2.94,9.15,5.56,14.71,15.03,28.76,30.39,45.1,44.12,18.95,16.01,38.56,30.72,64.38,33.66,16.34,8.17,32.68,4.25,49.02,0,8.17-2.61,16.34-3.59,24.84-3.59,14.05,1.63,27.78.65,41.83,1.63,28.76,1.63,57.84,3.92,86.6-.65,36.6-4.9,72.55-14.71,104.25-32.68,41.5-23.53,81.7-49.67,115.04-84.97,22.22-23.53,46.08-45.75,69.28-68.96,28.43-28.43,56.54-57.84,92.81-77.78h0Zm-357.85,325.83c.33-7.52-3.59-8.17-8.17-7.84-5.23.33-9.15,2.29-8.5,8.5.65,5.56,5.23,7.84,9.8,8.17,5.56,0,6.21-5.56,6.86-8.82h0Zm78.43-7.84c-2.29.33-7.52.65-7.19,6.86.33,5.56,4.58,7.84,9.48,8.17,4.58,0,7.52-2.94,7.84-7.84.33-5.56-2.94-7.52-10.13-7.19h0Zm-42.81-.33c-3.92,0-7.52,1.63-7.19,7.19.33,4.9,3.27,7.84,8.17,7.84s7.84-3.27,8.17-7.84c.33-5.56-3.27-7.19-9.15-7.19h0Z"/>
        <path class="cls-7" d="m-183.01,317.33c-11.77,1.31-21.9,7.52-33.01,10.78-.65-7.19,5.23-10.78,9.48-14.71,33.66-33.66,67.65-67,101.31-100.33,3.59-3.59,3.27-6.54,1.31-10.46,5.56-1.63,10.78-3.59,15.03-7.52,7.52,1.31,11.11-4.9,16.67-7.84,22.22-5.56,45.1-1.31,67.32-2.94,19.61,2.94,39.54,5.23,59.15,8.5,32.68,5.23,64.71,13.73,91.18,34.97,7.19,3.27,11.44,9.15,15.36,15.36-1.31,9.8-5.56,2.29-7.84,1.31-11.44-5.56-15.36-3.59-16.34,9.15-.65,11.77,1.63,23.86-7.19,34.64-4.58,5.23.65,13.07,7.19,14.05,13.4,1.96,12.42,11.11,10.78,19.94-.98,5.56-.98,10.13,2.61,14.38-24.51-3.59-47.39-11.77-69.28-22.88-24.51-12.75-50.66-19.61-77.45-25.49-14.38-3.27-29.09,1.63-42.81-4.58-.98-5.88,11.77-8.5,5.23-13.73s-9.48,4.9-14.05,8.17c-4.58,2.94-8.82,6.86-13.4,10.13-8.82,0-17.32.33-26.14.33,3.59-11.11,12.42-18.3,19.94-26.47,3.92-4.25,9.48-7.52,11.77-15.69-11.77,3.27-16.34,12.75-23.2,18.63-12.09,10.78-20.59,26.14-37.91,30.39-10.78,2.94-21.57,5.88-32.68,8.5,1.31-6.21,6.21-9.15,10.13-13.07,18.95-18.95,37.91-37.91,56.54-56.86,1.96-1.96,7.84-4.25,2.94-8.5-3.59-2.94-6.86-.33-9.8,2.94-4.58,5.23-9.15,10.46-14.38,15.69-25.16,24.84-47.06,53.92-78.43,73.2h0Z"/>
        <path class="cls-8" d="m-39.54,283.34c13.73,6.21,28.43,1.63,42.81,4.58,26.8,5.88,52.94,12.75,77.45,25.49,21.9,11.11,44.77,19.61,69.28,22.88,5.88,1.31,11.77,2.29,17.65,3.59-3.27,5.23-8.5,3.27-12.75,2.94-30.39-1.63-60.13,1.96-89.22,9.15-26.8,6.54-54.9,7.52-80.72,18.63-6.86,2.94-14.71,5.88-23.53,1.31,11.11-12.09,21.9-23.86,32.35-35.3,2.61-2.61,6.21-5.88,1.96-9.48-4.25-3.27-5.23,1.96-7.19,4.25-14.05,15.36-28.76,29.74-42.16,45.75-13.07,15.69-33.33,14.71-49.35,24.18-2.29,1.31-5.23-3.27-1.96-6.86,20.59-20.92,37.26-45.1,59.81-64.38,8.82-7.84,17.32-16.01,25.82-24.18,2.61-2.61,6.54-5.88,2.94-9.48-2.94-2.94-5.88,1.31-7.84,3.59-26.47,27.12-53.27,53.6-78.76,81.38-27.13,29.74-59.15,52.94-95.1,70.92-2.61,1.31-5.23,1.63-9.8-2.94,18.63-17.97,37.26-35.3,55.23-53.6,14.71-15.03,29.09-30.72,43.79-45.43,22.55-22.88,43.47-47.71,69.28-67h0Z"/>
        <path class="cls-8" d="m985.65,217.33c-14.71-24.51-21.57-49.67-6.21-76.8,13.4-23.53,49.02-36.28,74.19-25.49,8.17,3.59,18.3,3.92,24.51,12.09,29.09,33.99,20.26,69.94-.33,93.47-20.59,23.86-60.46,26.8-82.68,3.59-2.94-2.94-6.54-4.9-9.48-6.86Z"/>
        <path class="cls-5" d="m51.96,487.27c-10.46-39.22,12.09-75.17,51.96-82.36,34.97-6.21,68.3,20.92,69.61,56.21.65,22.22-1.31,43.47-22.22,57.52-19.28-4.58-37.26-14.38-58.17-14.71-15.36-.33-30.72-2.29-41.18-16.67h0Z"/>
        <path class="cls-2" d="m1657.89,236.28h-167c-17.32,0-30.72-10.46-34.64-25.82-3.27-13.07,13.4-32.35,29.74-33.33,34.31-1.96,68.3-.98,100,16.34,23.2,12.75,48.69,21.57,71.9,42.81Z"/>
        <path class="cls-5" d="m1286.31,374.52c-12.09-35.95,1.96-74.84,35.62-99.35,32.03-23.2,70.26-23.2,103.6.65,7.52,5.56,13.4,13.4,23.53,15.36-1.96,7.52,4.25,11.77,7.52,17.32,24.51,42.48-1.31,111.44-46.73,131.05-53.27,23.2-101.96-10.46-117.32-53.27-1.31-4.25-1.31-9.15-6.21-11.77h0Z"/>
        <path class="cls-2" d="m934.02,305.56c-8.17,12.75-14.05,23.53-21.57,33.66-8.5,10.78-39.54,7.52-46.73-4.25-7.52-12.75.98-28.43,16.99-29.09,16.01-.98,32.03-.33,51.31-.33h0Z"/>
        <path class="cls-5" d="m260.79,442.17c-4.58-19.94,3.59-33.33,20.92-33.99,11.44-.33,19.94,3.59,24.18,15.03,4.58,12.75,3.92,23.53-10.46,29.74-9.15-10.46-22.88-7.84-34.64-10.78h0Z"/>
        <path class="cls-5" d="m1334.03,168.63c0,22.22-15.36,37.58-37.58,37.58s-39.54-16.67-39.54-39.54,15.69-38.56,39.87-38.56c22.55.33,37.26,16.67,37.26,40.52h0Z"/>
        <path class="cls-8" d="m246.74,341.51c13.4,2.29,27.13,2.94,38.24,11.77-8.82,6.86-18.63,3.27-27.13,1.31-15.69-3.92-31.37-7.52-47.39-9.48,12.09-4.58,24.51-1.96,36.28-3.59h0Z"/>
        <path class="cls-8" d="m260.79,442.17c11.77,2.94,25.49.33,34.97,10.78-17.97,8.82-24.18,6.86-34.97-10.78Z"/>
        <path class="cls-5" d="m161.12,242.82c-4.25-6.21-8.17-12.42-15.36-15.36,7.84-2.29,13.73,2.29,19.61,5.88,37.26,22.88,74.51,45.75,115.36,61.11,39.54,15.03,79.41,24.18,123.21,15.03,27.78-5.56,55.56-10.13,81.38-21.57,43.47-18.95,86.6-39.87,123.53-69.61,32.35-26.14,67-49.35,98.7-76.47,23.53-19.94,46.08-40.2,64.05-65.03,13.07-17.97,27.78-33.99,42.48-50.33,14.05-16.01,31.05-28.11,49.35-36.6,25.49-11.77,52.94-16.99,79.74-.33,7.52,4.58,16.01,7.52,24.51,9.8,10.78,2.61,12.42,10.13,4.25,17.32-10.13,9.15-21.57,16.01-34.97,19.61-20.26,4.9-41.5,5.88-61.11,14.05-4.58,1.96-9.8,3.27-12.42,8.17-35.95,19.94-64.05,49.35-92.81,77.78-23.2,22.88-47.06,45.1-69.28,68.96-33.33,35.3-73.53,61.44-115.04,84.97-31.7,17.97-67.65,27.78-104.25,32.68-33.01-4.9-66.34-1.96-99.35-2.94-9.8-.33-19.61-1.96-29.09,1.96-8.5,0-16.67.98-24.51,3.59h-49.35c-25.82-3.27-45.1-17.97-64.38-33.66-16.34-13.4-30.39-29.09-45.1-44.12-2.61-1.96-4.58-5.88-9.15-4.9h0Z"/>
        <path class="cls-8" d="m914.08,190.86c2.94,11.11-7.84,10.78-13.07,11.44-5.88.98-9.8-4.9-10.13-11.77-.33-8.17,5.88-11.77,11.11-11.77,5.88-.33,13.4,2.29,12.09,12.09h0Z"/>
        <path class="cls-8" d="m150.99,47.06c-.33,30.07-16.67,48.04-43.79,47.71-29.09,0-44.77-18.3-44.45-50.98.33-24.84,18.95-42.16,46.08-42.16,25.82.33,42.48,17.97,42.16,45.43h0Z"/>
        <path class="cls-2" d="m83.01,140.85c-2.61.33-4.58-.33-5.56-2.94,2.29-.33,4.58,0,5.56,2.94Z"/>
        <path class="cls-2" d="m77.13,137.91c-2.61,0-4.9-.33-5.88-3.27,2.29.65,5.56-.33,5.88,3.27Z"/>
        <path class="cls-2" d="m353.61,322.23c9.48-3.92,19.28-2.29,29.09-1.96,33.01.98,66.34-1.96,99.35,2.94-28.76,4.58-57.84,2.61-86.6.65-14.05-.98-28.11.33-41.83-1.63h0Z"/>
        <path class="cls-1" d="m505.24,384.33c-.33,3.27-.98,8.82-7.19,8.5-4.58,0-9.15-2.61-9.8-8.17-.65-6.21,3.27-8.17,8.5-8.5,5.23,0,8.82.65,8.5,8.17h0Z"/>
        <path class="cls-1" d="m584,376.48c7.19,0,10.46,1.63,10.13,7.19-.33,4.9-3.27,8.17-7.84,7.84-4.9,0-9.15-2.29-9.48-8.17-.33-6.54,4.9-6.54,7.19-6.86h0Z"/>
        <path class="cls-1" d="m541.19,376.16c5.56,0,9.48,1.63,8.82,7.19-.33,4.9-3.27,8.17-8.17,7.84-4.9,0-7.84-2.94-8.17-7.84,0-5.56,3.59-6.86,7.52-7.19h0Z"/>
        <path class="cls-2" d="m279.42,326.15h49.35c-16.34,4.25-32.68,7.84-49.35,0Z"/>
      </g>
    </g>
  </g>
</svg>